<?xml version="1.0" encoding="UTF-8"?>
<svg width="209px" height="72px" viewBox="0 0 209 72" version="1.1" xmlns="http://www.w3.org/2000/svg" xmlns:xlink="http://www.w3.org/1999/xlink">
    <!-- Generator: Sketch 52.5 (67469) - http://www.bohemiancoding.com/sketch -->
    <title>zeitDeployButton</title>
    <desc>Created with Sketch.</desc>
    <defs>
        <path d="M0.000268543352,4 C0.000268543352,1.79 3.21493735,0 7.16438759,0 L161.835881,0 C165.785331,0 169,1.79 169,4 L169,28 C169,30.21 165.785331,32 161.835881,32 L7.16438759,32 C5.23993635,31.9868228 3.4039394,31.5579719 2.06037346,30.807808 C0.716807515,30.057644 -0.0242457522,29.0476298 0.000268543352,28 L0.000268543352,4 Z" id="path-1"></path>
        <filter x="-17.8%" y="-93.8%" width="135.5%" height="287.5%" filterUnits="objectBoundingBox" id="filter-2">
            <feOffset dx="0" dy="0" in="SourceAlpha" result="shadowOffsetOuter1"></feOffset>
            <feGaussianBlur stdDeviation="10" in="shadowOffsetOuter1" result="shadowBlurOuter1"></feGaussianBlur>
            <feColorMatrix values="0 0 0 0 0   0 0 0 0 0   0 0 0 0 0  0 0 0 0.3984375 0" type="matrix" in="shadowBlurOuter1"></feColorMatrix>
        </filter>
    </defs>
    <g id="Page-1" stroke="none" stroke-width="1" fill="none" fill-rule="evenodd">
        <g id="Artboard" transform="translate(-37.000000, -30.000000)">
            <g id="zeitDeployButton" transform="translate(57.000000, 50.000000)">
                <g id="Path">
                    <use fill="black" fill-opacity="1" filter="url(#filter-2)" xlink:href="#path-1"></use>
                    <use fill="#000000" fill-rule="evenodd" xlink:href="#path-1"></use>
                </g>
                <path d="M54.7685547,21 L53.2373047,21 L53.2373047,11.1357422 L54.7685547,11.1357422 L54.7685547,21 Z M57.6707351,21 L57.6707351,13.5556641 L59.0857741,13.5556641 L59.0857741,14.7382812 L59.1951491,14.7382812 C59.5825209,13.8541622 60.3230733,13.4121094 61.4168288,13.4121094 C62.24626,13.4121094 62.8831352,13.6513648 63.3274733,14.1298828 C63.7718115,14.6084008 63.9939772,15.2919877 63.9939772,16.1806641 L63.9939772,21 L62.5242507,21 L62.5242507,16.5498047 C62.5242507,15.3557883 61.9887743,14.7587891 60.9178054,14.7587891 C60.375485,14.7587891 59.9436859,14.9285465 59.6223952,15.2680664 C59.3011045,15.6075863 59.1404616,16.0667289 59.1404616,16.6455078 L59.1404616,21 L57.6707351,21 Z M66.4928373,15.6611328 C66.4928373,15.0048795 66.7639935,14.4659852 67.3063139,14.0444336 C67.8486343,13.622882 68.5413357,13.4121094 69.3844389,13.4121094 C70.2229847,13.4121094 70.8997358,13.5966778 71.4147123,13.9658203 C71.9296888,14.3349628 72.2236312,14.847653 72.2965482,15.5039062 L70.8883451,15.5039062 C70.8199854,15.2259101 70.6547852,15.0071623 70.3927397,14.8476562 C70.1306941,14.6881502 69.7945972,14.6083984 69.3844389,14.6083984 C68.9697233,14.6083984 68.6256512,14.698404 68.3522123,14.878418 C68.0787734,15.0584319 67.9420561,15.2919908 67.9420561,15.5791016 C67.9420561,15.80241 68.0377582,15.9869784 68.2291654,16.1328125 C68.4205726,16.2786466 68.7190723,16.397135 69.1246732,16.4882812 L70.3619779,16.7753906 C71.0774763,16.9394539 71.6026989,17.1832666 71.9376615,17.5068359 C72.2726241,17.8304053 72.4401029,18.2633436 72.4401029,18.8056641 C72.4401029,19.4983759 72.1507178,20.0611958 71.5719389,20.4941406 C70.9931599,20.9270855 70.2548861,21.1435547 69.3570951,21.1435547 C68.4729761,21.1435547 67.7586278,20.9555683 67.2140287,20.5795898 C66.6694296,20.2036114 66.3652335,19.6852247 66.3014311,19.0244141 L67.7711576,19.0244141 C67.8668612,19.3160822 68.0514297,19.5439445 68.3248686,19.7080078 C68.5983074,19.8720711 68.9537726,19.9541016 69.3912748,19.9541016 C69.8515636,19.9541016 70.2275364,19.860678 70.5192045,19.6738281 C70.8108726,19.4869782 70.9567045,19.2454442 70.9567045,18.9492188 C70.9567045,18.5162739 70.5921248,18.213217 69.8629545,18.0400391 L68.5641264,17.7392578 C67.8531853,17.5706372 67.3302413,17.3199886 66.9952787,16.9873047 C66.6603161,16.6546207 66.4928373,16.2125679 66.4928373,15.6611328 Z M75.2807599,11.703125 L76.7504864,11.703125 L76.7504864,13.5898438 L78.3637677,13.5898438 L78.3637677,14.8271484 L76.7504864,14.8271484 L76.7504864,18.6552734 C76.7504864,19.0426452 76.8347955,19.3263337 77.0034161,19.5063477 C77.1720368,19.6863616 77.4386357,19.7763672 77.8032208,19.7763672 C77.9490549,19.7763672 78.135902,19.7649741 78.3637677,19.7421875 L78.3637677,20.9658203 C78.0720996,21.0159508 77.8055007,21.0410156 77.563963,21.0410156 C76.7482037,21.0410156 76.1637369,20.8860693 75.810545,20.5761719 C75.4573532,20.2662745 75.2807599,19.7513057 75.2807599,19.03125 L75.2807599,14.8271484 L74.0981427,14.8271484 L74.0981427,13.5898438 L75.2807599,13.5898438 L75.2807599,11.703125 Z M83.132159,19.8857422 C83.683594,19.8857422 84.1427366,19.7307958 84.5096004,19.4208984 C84.8764642,19.1110011 85.0598934,18.7236351 85.0598934,18.2587891 L85.0598934,17.6367188 L83.241534,17.7529297 C82.7311148,17.7848309 82.355142,17.8896475 82.1136043,18.0673828 C81.8720666,18.2451181 81.7512996,18.4980452 81.7512996,18.8261719 C81.7512996,19.1542985 81.8789025,19.4129222 82.1341121,19.6020508 C82.3893217,19.7911793 82.7220007,19.8857422 83.132159,19.8857422 Z M82.7561824,21.1230469 C82.0270121,21.1230469 81.4311522,20.9191101 80.9685848,20.5112305 C80.5060174,20.1033508 80.2747371,19.5644565 80.2747371,18.8945312 C80.2747371,18.2291633 80.5139925,17.7062194 80.9925106,17.3256836 C81.4710286,16.9451478 82.1546155,16.7275393 83.0432918,16.6728516 L85.0598934,16.5566406 L85.0598934,15.9140625 C85.0598934,15.5175761 84.9300119,15.21338 84.6702449,15.0014648 C84.410478,14.7895497 84.0322266,14.6835938 83.5354793,14.6835938 C83.125321,14.6835938 82.7846669,14.7553704 82.5135067,14.8989258 C82.2423464,15.0424812 82.0657532,15.2464179 81.9837215,15.5107422 L80.5618465,15.5107422 C80.6347635,14.8727182 80.9480742,14.3634459 81.5017879,13.9829102 C82.0555016,13.6023744 82.7561782,13.4121094 83.6038387,13.4121094 C84.5335308,13.4121094 85.2524364,13.6319965 85.760577,14.0717773 C86.2687175,14.5115582 86.522784,15.1256471 86.522784,15.9140625 L86.522784,21 L85.1077449,21 L85.1077449,19.9541016 L84.991534,19.9541016 C84.7682256,20.3278013 84.4617508,20.6160472 84.0721004,20.8188477 C83.68245,21.0216481 83.2438151,21.1230469 82.7561824,21.1230469 Z M89.2198862,21 L89.2198862,13.5556641 L90.6349253,13.5556641 L90.6349253,14.7382812 L90.7443003,14.7382812 C91.131672,13.8541622 91.8722245,13.4121094 92.96598,13.4121094 C93.7954112,13.4121094 94.4322864,13.6513648 94.8766245,14.1298828 C95.3209627,14.6084008 95.5431284,15.2919877 95.5431284,16.1806641 L95.5431284,21 L94.0734019,21 L94.0734019,16.5498047 C94.0734019,15.3557883 93.5379255,14.7587891 92.4669566,14.7587891 C91.9246361,14.7587891 91.4928371,14.9285465 91.1715464,15.2680664 C90.8502557,15.6075863 90.6896128,16.0667289 90.6896128,16.6455078 L90.6896128,21 L89.2198862,21 Z M98.7324182,11.703125 L100.202145,11.703125 L100.202145,13.5898438 L101.815426,13.5898438 L101.815426,14.8271484 L100.202145,14.8271484 L100.202145,18.6552734 C100.202145,19.0426452 100.286454,19.3263337 100.455074,19.5063477 C100.623695,19.6863616 100.890294,19.7763672 101.254879,19.7763672 C101.400713,19.7763672 101.58756,19.7649741 101.815426,19.7421875 L101.815426,20.9658203 C101.523758,21.0159508 101.257159,21.0410156 101.015621,21.0410156 C100.199862,21.0410156 99.6153952,20.8860693 99.2622033,20.5761719 C98.9090115,20.2662745 98.7324182,19.7513057 98.7324182,19.03125 L98.7324182,14.8271484 L97.549801,14.8271484 L97.549801,13.5898438 L98.7324182,13.5898438 L98.7324182,11.703125 Z M108.754552,11.1357422 L112.316076,11.1357422 C113.778974,11.1357422 114.918285,11.5652626 115.734045,12.4243164 C116.549804,13.2833702 116.957677,14.4876225 116.957677,16.0371094 C116.957677,17.6139402 116.552082,18.8352821 115.74088,19.7011719 C114.929679,20.5670616 113.788088,21 112.316076,21 L108.754552,21 L108.754552,11.1357422 Z M110.285802,12.5302734 L110.285802,19.6054688 L112.145177,19.6054688 C113.179688,19.6054688 113.980624,19.2967153 114.548009,18.6791992 C115.115395,18.0616831 115.399084,17.1878312 115.399084,16.0576172 C115.399084,14.9456325 115.113116,14.0797557 114.541173,13.4599609 C113.96923,12.8401662 113.170573,12.5302734 112.145177,12.5302734 L110.285802,12.5302734 Z M123.817866,15.1894531 C123.489739,14.8385399 123.054522,14.6630859 122.512201,14.6630859 C121.969881,14.6630859 121.523271,14.8385399 121.172358,15.1894531 C120.821445,15.5403663 120.625483,16.0074841 120.584467,16.5908203 L124.344233,16.5908203 C124.326003,16.0029267 124.15055,15.535809 123.817866,15.1894531 Z M124.337397,18.9902344 L125.752436,18.9902344 C125.583815,19.6601596 125.215818,20.1865215 124.648432,20.5693359 C124.081046,20.9521504 123.373534,21.1435547 122.525873,21.1435547 C121.459462,21.1435547 120.619789,20.8006219 120.00683,20.1147461 C119.393872,19.4288703 119.087397,18.4912169 119.087397,17.3017578 C119.087397,16.1122987 119.39729,15.1666702 120.017084,14.4648438 C120.636879,13.7630173 121.470855,13.4121094 122.519037,13.4121094 C123.553548,13.4121094 124.365877,13.7447883 124.956049,14.4101562 C125.546221,15.0755242 125.841303,15.9938092 125.841303,17.1650391 L125.841303,17.6777344 L120.584467,17.6777344 L120.584467,17.7597656 C120.607254,18.4160189 120.796379,18.935545 121.15185,19.3183594 C121.50732,19.7011738 121.978995,19.8925781 122.566889,19.8925781 C123.46468,19.8925781 124.054843,19.5917999 124.337397,18.9902344 Z M132.072585,13.4326172 C133.020506,13.4326172 133.772452,13.7778286 134.328444,14.4682617 C134.884437,15.1586949 135.162429,16.0940696 135.162429,17.2744141 C135.162429,18.4547585 134.885576,19.3912726 134.331862,20.0839844 C133.778149,20.7766962 133.029621,21.1230469 132.086257,21.1230469 C131.557608,21.1230469 131.092769,21.0125337 130.691726,20.7915039 C130.290682,20.5704742 129.992182,20.2639994 129.796218,19.8720703 L129.680007,19.8720703 L129.680007,23.4746094 L128.21028,23.4746094 L128.21028,13.5556641 L129.625319,13.5556641 L129.625319,14.7861328 L129.734694,14.7861328 C129.958003,14.3623026 130.27701,14.0307629 130.691726,13.7915039 C131.106441,13.5522449 131.566723,13.4326172 132.072585,13.4326172 Z M131.655593,19.8037109 C132.279945,19.8037109 132.76871,19.5792666 133.121901,19.1303711 C133.475093,18.6814756 133.651687,18.0628295 133.651687,17.2744141 C133.651687,16.4859987 133.475093,15.8684918 133.121901,15.421875 C132.76871,14.9752582 132.282224,14.7519531 131.662429,14.7519531 C131.042634,14.7519531 130.55273,14.9786761 130.192702,15.4321289 C129.832674,15.8855817 129.652663,16.5019492 129.652663,17.28125 C129.652663,18.0559935 129.832674,18.6700824 130.192702,19.1235352 C130.55273,19.5769879 131.040355,19.8037109 131.655593,19.8037109 Z M137.599765,21 L137.599765,10.6503906 L139.069492,10.6503906 L139.069492,21 L137.599765,21 Z M145.0205,19.8378906 C145.653967,19.8378906 146.14501,19.6134463 146.493645,19.1645508 C146.84228,18.7156553 147.016594,18.085616 147.016594,17.2744141 C147.016594,16.4677694 146.84228,15.8400088 146.493645,15.3911133 C146.14501,14.9422178 145.653967,14.7177734 145.0205,14.7177734 C144.382476,14.7177734 143.890294,14.9410785 143.543938,15.3876953 C143.197582,15.8343121 143.024407,16.4632121 143.024407,17.2744141 C143.024407,18.0901733 143.197582,18.7213519 143.543938,19.1679688 C143.890294,19.6145856 144.382476,19.8378906 145.0205,19.8378906 Z M145.0205,21.1435547 C143.926745,21.1435547 143.067704,20.7994826 142.443352,20.1113281 C141.819,19.4231736 141.506829,18.4775451 141.506829,17.2744141 C141.506829,16.0758404 141.820139,15.1324904 142.44677,14.4443359 C143.073401,13.7561815 143.931302,13.4121094 145.0205,13.4121094 C146.105141,13.4121094 146.960764,13.7561815 147.587395,14.4443359 C148.214026,15.1324904 148.527336,16.0758404 148.527336,17.2744141 C148.527336,18.4775451 148.215165,19.4231736 147.590813,20.1113281 C146.966461,20.7994826 146.109699,21.1435547 145.0205,21.1435547 Z M151.347485,23.7001953 C151.092276,23.7001953 150.889478,23.6888022 150.739087,23.6660156 L150.739087,22.4013672 C150.843905,22.4195964 151.003409,22.4287109 151.217603,22.4287109 C151.568516,22.4287109 151.848787,22.3489591 152.058423,22.1894531 C152.268059,22.0299471 152.436678,21.7633482 152.564282,21.3896484 L152.673657,21.0273438 L149.980298,13.5556641 L151.579907,13.5556641 L153.446118,19.46875 L153.562329,19.46875 L155.421704,13.5556641 L156.980298,13.5556641 L154.204907,21.3076172 C153.885895,22.2099654 153.520176,22.8343082 153.107739,23.1806641 C152.695302,23.52702 152.108557,23.7001953 151.347485,23.7001953 Z" id="Instant-Deploy" fill="#FFFFFF"></path>
                <polygon id="Path" fill="#4A4A4A" points="40 32 40 0 41 0 41 32"></polygon>
                <path d="M11.5714286,10 L26.4285714,10 C26.7442857,10 27,9.70166667 27,9.33333333 L27,6.66666667 C27,6.29833333 26.7442857,6 26.4285714,6 L11.5714286,6 C11.2557143,6 11,6.29833333 11,6.66666667 L11,9.33333333 C11,9.70166667 11.2557143,10 11.5714286,10 Z M32.4285714,14 L17.5714286,14 C17.2557143,14 17,14.2983333 17,14.6666667 L17,17.3333333 C17,17.7016667 17.2557143,18 17.5714286,18 L32.4285714,18 C32.7442857,18 33,17.7016667 33,17.3333333 L33,14.6666667 C33,14.2983333 32.7442857,14 32.4285714,14 Z M26.4285714,22 L11.5714286,22 C11.2557143,22 11,22.2983333 11,22.6666667 L11,25.3333333 C11,25.7016667 11.2557143,26 11.5714286,26 L26.4285714,26 C26.7442857,26 27,25.7016667 27,25.3333333 L27,22.6666667 C27,22.2983333 26.7442857,22 26.4285714,22 Z" id="Shape" fill="#FFFFFF" fill-rule="nonzero"></path>
            </g>
        </g>
    </g>
</svg>